<svg width="150" height="150" viewBox="0 0 150 150" xmlns="http://www.w3.org/2000/svg">
  <defs>
    <linearGradient id="croqueteGradient" x1="0%" y1="0%" x2="100%" y2="100%">
      <stop offset="0%" stop-color="#db9e57"/>
      <stop offset="100%" stop-color="#b77f3d"/>
    </linearGradient>
  </defs>
  <g transform="translate(35, 40)">
    <!-- Croquete Body -->
    <rect x="10" y="20" width="70" height="30" rx="15" ry="15" fill="url(#croqueteGradient)" stroke="#8e5f2a" stroke-width="2"/>
    
    <!-- Texture details -->
    <g fill="#8e5f2a" opacity="0.3">
      <circle cx="20" cy="25" r="1.5"/>
      <circle cx="30" cy="35" r="1"/>
      <circle cx="40" cy="30" r="1.5"/>
      <circle cx="50" cy="25" r="1"/>
      <circle cx="60" cy="40" r="1.5"/>
      <circle cx="70" cy="30" r="1"/>
      <circle cx="25" cy="45" r="1.5"/>
      <circle cx="35" cy="25" r="1"/>
      <circle cx="45" cy="45" r="1.5"/>
      <circle cx="55" cy="30" r="1"/>
      <circle cx="65" cy="25" r="1.5"/>
    </g>
    
    <!-- Highlight line to suggest texture -->
    <path d="M20,35 C30,30 40,30 50,35 C60,40 70,35 75,30" fill="none" stroke="#c89556" stroke-width="1.5" opacity="0.5"/>
  </g>
</svg>