<svg width="150" height="150" viewBox="0 0 150 150" xmlns="http://www.w3.org/2000/svg">
  <defs>
    <linearGradient id="enroladoGradient" x1="0%" y1="0%" x2="100%" y2="100%">
      <stop offset="0%" stop-color="#e6b97c"/>
      <stop offset="100%" stop-color="#c99647"/>
    </linearGradient>
    <linearGradient id="fillingGradient" x1="0%" y1="0%" x2="100%" y2="100%">
      <stop offset="0%" stop-color="#f07878"/>
      <stop offset="100%" stop-color="#d85555"/>
    </linearGradient>
  </defs>
  <g transform="translate(35, 35)">
    <!-- Enrolado Dough Wrapper -->
    <path d="M10,40 C10,25 20,10 40,10 C60,10 70,25 70,40 C70,55 60,70 40,70 C20,70 10,55 10,40 Z" fill="url(#enroladoGradient)" stroke="#a87930" stroke-width="2"/>
    
    <!-- Hint of filling (sausage) inside -->
    <path d="M30,30 C35,25 45,25 50,30 C55,35 55,45 50,50 C45,55 35,55 30,50 C25,45 25,35 30,30 Z" fill="url(#fillingGradient)" opacity="0.5"/>
    
    <!-- Texture details -->
    <g fill="#a87930" opacity="0.3">
      <circle cx="20" cy="30" r="1.5"/>
      <circle cx="25" cy="50" r="1"/>
      <circle cx="40" cy="20" r="1.5"/>
      <circle cx="50" cy="60" r="1"/>
      <circle cx="60" cy="35" r="1.5"/>
      <circle cx="15" cy="40" r="1"/>
      <circle cx="35" cy="65" r="1.5"/>
      <circle cx="55" cy="25" r="1"/>
      <circle cx="65" cy="45" r="1.5"/>
    </g>
    
    <!-- Spiral pattern to suggest wrapping -->
    <path d="M30,30 C40,25 55,30 60,40 C65,50 60,60 50,65 C40,70 25,65 20,55 C15,45 20,35 30,30 Z" fill="none" stroke="#a87930" stroke-width="1" opacity="0.6"/>
  </g>
</svg>