<svg width="150" height="150" viewBox="0 0 150 150" xmlns="http://www.w3.org/2000/svg">
  <defs>
    <linearGradient id="italianoGradient" x1="0%" y1="0%" x2="100%" y2="100%">
      <stop offset="0%" stop-color="#ecc089"/>
      <stop offset="100%" stop-color="#d6a355"/>
    </linearGradient>
  </defs>
  <g transform="translate(20, 40)">
    <!-- Base Italian Snack -->
    <path d="M10,35 C10,25 20,15 55,15 C90,15 100,25 100,35 C100,45 90,55 55,55 C20,55 10,45 10,35 Z" fill="url(#italianoGradient)" stroke="#b17f30" stroke-width="2"/>
    
    <!-- Filling suggestion lines -->
    <path d="M30,30 C40,25 70,25 80,30" fill="none" stroke="#b17f30" stroke-width="1" opacity="0.6"/>
    <path d="M30,40 C40,45 70,45 80,40" fill="none" stroke="#b17f30" stroke-width="1" opacity="0.6"/>
    
    <!-- Texture details -->
    <g fill="#b17f30" opacity="0.3">
      <circle cx="20" cy="30" r="1.5"/>
      <circle cx="30" cy="20" r="1"/>
      <circle cx="40" cy="45" r="1.5"/>
      <circle cx="50" cy="25" r="1"/>
      <circle cx="60" cy="40" r="1.5"/>
      <circle cx="70" cy="25" r="1"/>
      <circle cx="80" cy="45" r="1.5"/>
      <circle cx="90" cy="35" r="1"/>
      <circle cx="25" cy="40" r="1.5"/>
      <circle cx="45" cy="35" r="1"/>
      <circle cx="65" cy="30" r="1.5"/>
      <circle cx="85" cy="25" r="1"/>
    </g>
  </g>
</svg>