<svg width="150" height="150" viewBox="0 0 150 150" xmlns="http://www.w3.org/2000/svg">
  <defs>
    <linearGradient id="sirioGradient" x1="0%" y1="0%" x2="100%" y2="100%">
      <stop offset="0%" stop-color="#e6d5b3"/>
      <stop offset="100%" stop-color="#d1bb91"/>
    </linearGradient>
    <linearGradient id="fillingGradient" x1="0%" y1="0%" x2="100%" y2="100%">
      <stop offset="0%" stop-color="#7d9e6c"/>
      <stop offset="100%" stop-color="#5c7b4d"/>
    </linearGradient>
  </defs>
  <g transform="translate(25, 40)">
    <!-- Syrian Snack Base (elongated shape) -->
    <rect x="10" y="20" width="90" height="30" rx="5" ry="5" fill="url(#sirioGradient)" stroke="#b5a27c" stroke-width="2"/>
    
    <!-- Filling hint - layer pattern -->
    <rect x="15" y="35" width="80" height="3" fill="url(#fillingGradient)" opacity="0.7"/>
    <rect x="15" y="30" width="80" height="2" fill="#b87246" opacity="0.6"/>
    
    <!-- Texture details for dough -->
    <g fill="#b5a27c" opacity="0.3">
      <circle cx="20" cy="25" r="1"/>
      <circle cx="40" cy="25" r="1.5"/>
      <circle cx="60" cy="25" r="1"/>
      <circle cx="80" cy="25" r="1.5"/>
      <circle cx="30" cy="45" r="1"/>
      <circle cx="50" cy="45" r="1.5"/>
      <circle cx="70" cy="45" r="1"/>
      <circle cx="90" cy="45" r="1.5"/>
    </g>
    
    <!-- Sesame seed suggestion -->
    <g fill="#e9ddc3" opacity="0.9">
      <circle cx="25" cy="23" r="0.8"/>
      <circle cx="45" cy="22" r="0.8"/>
      <circle cx="65" cy="23" r="0.8"/>
      <circle cx="85" cy="22" r="0.8"/>
      <circle cx="35" cy="24" r="0.8"/>
      <circle cx="55" cy="23" r="0.8"/>
      <circle cx="75" cy="24" r="0.8"/>
    </g>
  </g>
</svg>