<svg width="150" height="150" viewBox="0 0 150 150" xmlns="http://www.w3.org/2000/svg">
  <defs>
    <linearGradient id="quibeGradient" x1="0%" y1="0%" x2="100%" y2="100%">
      <stop offset="0%" stop-color="#b27e5c"/>
      <stop offset="100%" stop-color="#875b3d"/>
    </linearGradient>
  </defs>
  <g transform="translate(25, 45)">
    <!-- Quibe Body -->
    <ellipse cx="50" cy="30" rx="45" ry="25" fill="url(#quibeGradient)" stroke="#634229" stroke-width="2"/>
    
    <!-- Texture details -->
    <path d="M30,25 C35,22 40,20 50,20 C60,20 70,25 75,30" fill="none" stroke="#634229" stroke-width="1" opacity="0.5"/>
    <path d="M25,35 C35,38 45,40 60,38 C70,36 75,32 80,30" fill="none" stroke="#634229" stroke-width="1" opacity="0.5"/>
    
    <!-- Fine grain texture using scattered small dots -->
    <g fill="#634229" opacity="0.3">
      <circle cx="20" cy="25" r="1.5"/>
      <circle cx="30" cy="35" r="1"/>
      <circle cx="40" cy="20" r="1.5"/>
      <circle cx="45" cy="40" r="1"/>
      <circle cx="55" cy="20" r="1"/>
      <circle cx="65" cy="30" r="1.5"/>
      <circle cx="70" cy="25" r="1"/>
      <circle cx="80" cy="35" r="1.5"/>
      <circle cx="25" cy="30" r="1"/>
      <circle cx="35" cy="25" r="1.5"/>
      <circle cx="60" cy="35" r="1"/>
      <circle cx="75" cy="30" r="1.5"/>
    </g>
  </g>
</svg>