<svg width="150" height="150" viewBox="0 0 150 150" xmlns="http://www.w3.org/2000/svg">
  <defs>
    <linearGradient id="risoleGradient" x1="0%" y1="0%" x2="100%" y2="100%">
      <stop offset="0%" stop-color="#e6b87c"/>
      <stop offset="100%" stop-color="#c99547"/>
    </linearGradient>
  </defs>
  <g transform="translate(35, 40)">
    <!-- Risole Body -->
    <ellipse cx="40" cy="35" rx="40" ry="25" fill="url(#risoleGradient)" stroke="#a67930" stroke-width="2"/>
    
    <!-- Edge details to show the sealed edges of risole -->
    <path d="M10,25 C20,15 60,15 70,25" fill="none" stroke="#a67930" stroke-width="1.5" opacity="0.6"/>
    <path d="M10,45 C20,55 60,55 70,45" fill="none" stroke="#a67930" stroke-width="1.5" opacity="0.6"/>
    
    <!-- Texture details -->
    <g fill="#a67930" opacity="0.3">
      <circle cx="15" cy="30" r="1.5"/>
      <circle cx="25" cy="20" r="1"/>
      <circle cx="35" cy="50" r="1.5"/>
      <circle cx="45" cy="25" r="1"/>
      <circle cx="55" cy="45" r="1.5"/>
      <circle cx="65" cy="35" r="1"/>
      <circle cx="20" cy="45" r="1.5"/>
      <circle cx="30" cy="30" r="1"/>
      <circle cx="40" cy="40" r="1.5"/>
      <circle cx="50" cy="25" r="1"/>
      <circle cx="60" cy="30" r="1.5"/>
    </g>
  </g>
</svg>